<svg width="45" height="62" viewBox="0 0 45 62" fill="none" xmlns="http://www.w3.org/2000/svg">
<path d="M6.69913 58.16C5.52579 58.16 4.51779 57.9253 3.67513 57.456C2.84313 56.976 2.20313 56.304 1.75513 55.44C1.30713 54.5653 1.08313 53.536 1.08313 52.352C1.08313 51.168 1.30713 50.144 1.75513 49.28C2.20313 48.416 2.84313 47.7493 3.67513 47.28C4.51779 46.8 5.52579 46.56 6.69913 46.56C7.48846 46.56 8.19779 46.672 8.82713 46.896C9.46713 47.12 10.0165 47.4507 10.4751 47.888L9.80313 49.52C9.30179 49.1147 8.81646 48.8267 8.34713 48.656C7.88846 48.4747 7.36046 48.384 6.76313 48.384C5.62179 48.384 4.74713 48.7307 4.13913 49.424C3.54179 50.1067 3.24313 51.0827 3.24313 52.352C3.24313 53.6213 3.54179 54.6027 4.13913 55.296C4.74713 55.9893 5.62179 56.336 6.76313 56.336C7.36046 56.336 7.88846 56.2507 8.34713 56.08C8.81646 55.8987 9.30179 55.6 9.80313 55.184L10.4751 56.816C10.0165 57.2427 9.46713 57.5733 8.82713 57.808C8.19779 58.0427 7.48846 58.16 6.69913 58.16ZM12.2443 58V46.224H14.2443V51.536H14.0203C14.2656 50.96 14.6443 50.5227 15.1562 50.224C15.6683 49.9147 16.2549 49.76 16.9163 49.76C17.8763 49.76 18.5909 50.032 19.0603 50.576C19.5296 51.1093 19.7643 51.9253 19.7643 53.024V58H17.7643V53.12C17.7643 52.4907 17.6416 52.0373 17.3963 51.76C17.1616 51.472 16.7829 51.328 16.2603 51.328C15.6523 51.328 15.1616 51.52 14.7883 51.904C14.4256 52.2773 14.2443 52.7787 14.2443 53.408V58H12.2443ZM25.0049 58.16C24.3009 58.16 23.6822 57.9947 23.1489 57.664C22.6155 57.3227 22.1995 56.8373 21.9009 56.208C21.6022 55.5787 21.4529 54.8267 21.4529 53.952C21.4529 53.0773 21.6022 52.3307 21.9009 51.712C22.1995 51.0827 22.6155 50.6027 23.1489 50.272C23.6822 49.9307 24.3009 49.76 25.0049 49.76C25.6875 49.76 26.2849 49.9307 26.7969 50.272C27.3195 50.6027 27.6662 51.0507 27.8369 51.616H27.6609L27.8369 49.92H29.7569C29.7249 50.2507 29.6929 50.5867 29.6609 50.928C29.6395 51.2693 29.6289 51.6053 29.6289 51.936V58H27.6449L27.6289 56.336H27.8209C27.6502 56.8907 27.3035 57.3333 26.7809 57.664C26.2582 57.9947 25.6662 58.16 25.0049 58.16ZM25.5649 56.624C26.1942 56.624 26.7009 56.4053 27.0849 55.968C27.4689 55.52 27.6609 54.848 27.6609 53.952C27.6609 53.056 27.4689 52.3893 27.0849 51.952C26.7009 51.5147 26.1942 51.296 25.5649 51.296C24.9355 51.296 24.4289 51.5147 24.0449 51.952C23.6609 52.3893 23.4689 53.056 23.4689 53.952C23.4689 54.848 23.6555 55.52 24.0289 55.968C24.4129 56.4053 24.9249 56.624 25.5649 56.624ZM35.2628 58.16C34.3028 58.16 33.5774 57.9093 33.0868 57.408C32.5961 56.9067 32.3508 56.1547 32.3508 55.152V51.424H30.7988V49.92H32.3508V47.856L34.3508 47.344V49.92H36.5108V51.424H34.3508V55.024C34.3508 55.5787 34.4574 55.968 34.6708 56.192C34.8841 56.416 35.1774 56.528 35.5508 56.528C35.7534 56.528 35.9241 56.512 36.0628 56.48C36.2121 56.448 36.3561 56.4053 36.4948 56.352V57.936C36.3134 58.0107 36.1108 58.064 35.8868 58.096C35.6734 58.1387 35.4654 58.16 35.2628 58.16ZM40.7493 58.16C40.0559 58.16 39.4159 58.08 38.8293 57.92C38.2533 57.7493 37.7679 57.5147 37.3733 57.216L37.9333 55.872C38.3386 56.1493 38.7866 56.3627 39.2773 56.512C39.7679 56.6613 40.2639 56.736 40.7653 56.736C41.2986 56.736 41.6933 56.6453 41.9493 56.464C42.2159 56.2827 42.3493 56.0373 42.3493 55.728C42.3493 55.4827 42.2639 55.2907 42.0933 55.152C41.9333 55.0027 41.6719 54.8907 41.3093 54.816L39.7093 54.512C39.0266 54.3627 38.5039 54.1067 38.1413 53.744C37.7893 53.3813 37.6133 52.9067 37.6133 52.32C37.6133 51.8187 37.7466 51.376 38.0133 50.992C38.2906 50.608 38.6799 50.3093 39.1813 50.096C39.6933 49.872 40.2906 49.76 40.9733 49.76C41.5706 49.76 42.1306 49.84 42.6533 50C43.1866 50.16 43.6346 50.4 43.9973 50.72L43.4213 52.016C43.0906 51.7493 42.7119 51.5413 42.2853 51.392C41.8586 51.2427 41.4426 51.168 41.0373 51.168C40.4826 51.168 40.0773 51.2693 39.8213 51.472C39.5653 51.664 39.4373 51.9147 39.4373 52.224C39.4373 52.4587 39.5119 52.656 39.6613 52.816C39.8213 52.9653 40.0666 53.0773 40.3973 53.152L41.9973 53.456C42.7119 53.5947 43.2506 53.84 43.6133 54.192C43.9866 54.5333 44.1733 55.0027 44.1733 55.6C44.1733 56.1333 44.0293 56.592 43.7413 56.976C43.4533 57.36 43.0533 57.6533 42.5413 57.856C42.0293 58.0587 41.4319 58.16 40.7493 58.16Z" fill="#0F75BC"/>
<path d="M23 3C31.2842 3 38 9.71573 38 18C38 26.2842 31.2842 33 23 33C20.5726 33 18.2267 32.4219 16.1193 31.332L10.3806 32.933C9.38318 33.2115 8.34887 32.6288 8.07037 31.6314C7.97819 31.3014 7.97824 30.9524 8.07043 30.6227L9.67192 24.8883C8.57955 22.779 8 20.4305 8 18C8 9.71573 14.7157 3 23 3ZM23 5.25C15.9584 5.25 10.25 10.9584 10.25 18C10.25 20.2044 10.8092 22.3251 11.8595 24.2063L12.0855 24.6108L10.4164 30.5871L16.3963 28.9188L16.8006 29.1443C18.6801 30.1922 20.7983 30.75 23 30.75C30.0416 30.75 35.75 25.0416 35.75 18C35.75 10.9584 30.0416 5.25 23 5.25ZM18.125 19.5H24.8724C25.4938 19.5 25.9974 20.0037 25.9974 20.625C25.9974 21.1946 25.5742 21.6653 25.025 21.7398L24.8724 21.75H18.125C17.5037 21.75 17 21.2463 17 20.625C17 20.0555 17.4232 19.5848 17.9723 19.5102L18.125 19.5H24.8724H18.125ZM18.125 14.25H27.8818C28.5031 14.25 29.0068 14.7537 29.0068 15.375C29.0068 15.9446 28.5835 16.4153 28.0345 16.4898L27.8818 16.5H18.125C17.5037 16.5 17 15.9963 17 15.375C17 14.8055 17.4232 14.3348 17.9723 14.2603L18.125 14.25H27.8818H18.125Z" fill="#0F75BC"/>
</svg>
