<svg width="46" height="62" viewBox="0 0 46 62" fill="none" xmlns="http://www.w3.org/2000/svg">
<path d="M1.74019 58V46.72H3.80419V51.424H9.58019V46.72H11.6442V58H9.58019V53.136H3.80419V58H1.74019ZM17.6188 58.16C16.7868 58.16 16.0668 57.9893 15.4588 57.648C14.8508 57.3067 14.3761 56.8213 14.0348 56.192C13.7041 55.5627 13.5388 54.816 13.5388 53.952C13.5388 53.088 13.7041 52.3467 14.0348 51.728C14.3761 51.0987 14.8508 50.6133 15.4588 50.272C16.0668 49.9307 16.7868 49.76 17.6188 49.76C18.4508 49.76 19.1708 49.9307 19.7788 50.272C20.3975 50.6133 20.8721 51.0987 21.2028 51.728C21.5441 52.3467 21.7148 53.088 21.7148 53.952C21.7148 54.816 21.5441 55.5627 21.2028 56.192C20.8721 56.8213 20.3975 57.3067 19.7788 57.648C19.1708 57.9893 18.4508 58.16 17.6188 58.16ZM17.6188 56.624C18.2481 56.624 18.7495 56.4053 19.1228 55.968C19.4961 55.52 19.6828 54.848 19.6828 53.952C19.6828 53.056 19.4961 52.3893 19.1228 51.952C18.7495 51.5147 18.2481 51.296 17.6188 51.296C16.9895 51.296 16.4881 51.5147 16.1148 51.952C15.7415 52.3893 15.5548 53.056 15.5548 53.952C15.5548 54.848 15.7415 55.52 16.1148 55.968C16.4881 56.4053 16.9895 56.624 17.6188 56.624ZM23.4396 58V51.936C23.4396 51.6053 23.4289 51.2693 23.4076 50.928C23.3862 50.5867 23.3542 50.2507 23.3116 49.92H25.2476L25.4076 51.52H25.2156C25.4396 50.9653 25.7809 50.5333 26.2396 50.224C26.7089 49.9147 27.2636 49.76 27.9036 49.76C28.5436 49.76 29.0716 49.9147 29.4876 50.224C29.9142 50.5227 30.2129 50.992 30.3836 51.632H30.1276C30.3516 51.056 30.7196 50.6027 31.2316 50.272C31.7436 49.9307 32.3302 49.76 32.9916 49.76C33.8982 49.76 34.5756 50.0267 35.0236 50.56C35.4716 51.0933 35.6956 51.9253 35.6956 53.056V58H33.6956V53.136C33.6956 52.496 33.5889 52.0373 33.3756 51.76C33.1622 51.472 32.8209 51.328 32.3516 51.328C31.7969 51.328 31.3596 51.5253 31.0396 51.92C30.7196 52.304 30.5596 52.8267 30.5596 53.488V58H28.5596V53.136C28.5596 52.496 28.4529 52.0373 28.2396 51.76C28.0262 51.472 27.6849 51.328 27.2156 51.328C26.6609 51.328 26.2236 51.5253 25.9036 51.92C25.5942 52.304 25.4396 52.8267 25.4396 53.488V58H23.4396ZM41.7342 58.16C40.3795 58.16 39.3182 57.7867 38.5502 57.04C37.7822 56.2933 37.3982 55.2693 37.3982 53.968C37.3982 53.1253 37.5635 52.3893 37.8942 51.76C38.2249 51.1307 38.6835 50.64 39.2702 50.288C39.8675 49.936 40.5609 49.76 41.3502 49.76C42.1289 49.76 42.7795 49.9253 43.3022 50.256C43.8249 50.5867 44.2195 51.0507 44.4862 51.648C44.7635 52.2453 44.9022 52.944 44.9022 53.744V54.272H39.0142V53.216H43.4782L43.2062 53.44C43.2062 52.6933 43.0462 52.1227 42.7262 51.728C42.4169 51.3333 41.9635 51.136 41.3662 51.136C40.7049 51.136 40.1929 51.3707 39.8302 51.84C39.4782 52.3093 39.3022 52.9653 39.3022 53.808V54.016C39.3022 54.8907 39.5155 55.5467 39.9422 55.984C40.3795 56.4107 40.9929 56.624 41.7822 56.624C42.2409 56.624 42.6675 56.5653 43.0622 56.448C43.4675 56.32 43.8515 56.1173 44.2142 55.84L44.8062 57.184C44.4222 57.4933 43.9635 57.7333 43.4302 57.904C42.8969 58.0747 42.3315 58.16 41.7342 58.16Z" fill="#B3B3B3"/>
<path d="M20.8243 3.79783C22.0811 2.73796 23.9189 2.73796 25.1757 3.79785L35.3008 12.336C36.0611 12.9773 36.5 13.9213 36.5 14.9161V29.6202C36.5 31.0699 35.3248 32.2452 33.875 32.2452H28.625C27.1752 32.2452 26 31.0699 26 29.6202V21.3702C26 21.1632 25.8321 20.9952 25.625 20.9952H20.375C20.1678 20.9952 20 21.1632 20 21.3702V29.6202C20 31.0699 18.8247 32.2452 17.375 32.2452H12.125C10.6753 32.2452 9.5 31.0699 9.5 29.6202V14.9161C9.5 13.9213 9.93883 12.9773 10.6993 12.336L20.8243 3.79783ZM23.7252 5.5179C23.3063 5.1646 22.6937 5.1646 22.2748 5.5179L12.1498 14.0561C11.8963 14.2698 11.75 14.5845 11.75 14.9161V29.6202C11.75 29.8273 11.9179 29.9952 12.125 29.9952H17.375C17.5821 29.9952 17.75 29.8273 17.75 29.6202V21.3702C17.75 19.9204 18.9253 18.7452 20.375 18.7452H25.625C27.0748 18.7452 28.25 19.9204 28.25 21.3702V29.6202C28.25 29.8273 28.4179 29.9952 28.625 29.9952H33.875C34.0821 29.9952 34.25 29.8273 34.25 29.6202V14.9161C34.25 14.5845 34.1038 14.2698 33.8503 14.0561L23.7252 5.5179Z" fill="#B3B3B3"/>
</svg>
