<svg width="70" height="62" viewBox="0 0 70 62" fill="none" xmlns="http://www.w3.org/2000/svg">
<path d="M6.84756 58.16C5.67423 58.16 4.66623 57.9253 3.82356 57.456C2.99156 56.976 2.35156 56.304 1.90356 55.44C1.45556 54.5653 1.23156 53.536 1.23156 52.352C1.23156 51.168 1.45556 50.144 1.90356 49.28C2.35156 48.416 2.99156 47.7493 3.82356 47.28C4.66623 46.8 5.67423 46.56 6.84756 46.56C7.6369 46.56 8.34623 46.672 8.97556 46.896C9.61556 47.12 10.1649 47.4507 10.6236 47.888L9.95156 49.52C9.45023 49.1147 8.9649 48.8267 8.49556 48.656C8.0369 48.4747 7.5089 48.384 6.91156 48.384C5.77023 48.384 4.89556 48.7307 4.28756 49.424C3.69023 50.1067 3.39156 51.0827 3.39156 52.352C3.39156 53.6213 3.69023 54.6027 4.28756 55.296C4.89556 55.9893 5.77023 56.336 6.91156 56.336C7.5089 56.336 8.0369 56.2507 8.49556 56.08C8.9649 55.8987 9.45023 55.6 9.95156 55.184L10.6236 56.816C10.1649 57.2427 9.61556 57.5733 8.97556 57.808C8.34623 58.0427 7.6369 58.16 6.84756 58.16ZM15.2314 58.16C14.5274 58.16 13.9088 57.9947 13.3754 57.664C12.8421 57.3227 12.4261 56.8373 12.1274 56.208C11.8288 55.5787 11.6794 54.8267 11.6794 53.952C11.6794 53.0773 11.8288 52.3307 12.1274 51.712C12.4261 51.0827 12.8421 50.6027 13.3754 50.272C13.9088 49.9307 14.5274 49.76 15.2314 49.76C15.9141 49.76 16.5114 49.9307 17.0234 50.272C17.5461 50.6027 17.8928 51.0507 18.0634 51.616H17.8874L18.0634 49.92H19.9834C19.9514 50.2507 19.9194 50.5867 19.8874 50.928C19.8661 51.2693 19.8554 51.6053 19.8554 51.936V58H17.8714L17.8554 56.336H18.0474C17.8768 56.8907 17.5301 57.3333 17.0074 57.664C16.4848 57.9947 15.8928 58.16 15.2314 58.16ZM15.7914 56.624C16.4208 56.624 16.9274 56.4053 17.3114 55.968C17.6954 55.52 17.8874 54.848 17.8874 53.952C17.8874 53.056 17.6954 52.3893 17.3114 51.952C16.9274 51.5147 16.4208 51.296 15.7914 51.296C15.1621 51.296 14.6554 51.5147 14.2714 51.952C13.8874 52.3893 13.6954 53.056 13.6954 53.952C13.6954 54.848 13.8821 55.52 14.2554 55.968C14.6394 56.4053 15.1514 56.624 15.7914 56.624ZM22.0333 58V46.224H24.0333V58H22.0333ZM30.1092 58.16C28.7545 58.16 27.6932 57.7867 26.9252 57.04C26.1572 56.2933 25.7732 55.2693 25.7732 53.968C25.7732 53.1253 25.9385 52.3893 26.2692 51.76C26.5999 51.1307 27.0585 50.64 27.6452 50.288C28.2425 49.936 28.9359 49.76 29.7252 49.76C30.5039 49.76 31.1545 49.9253 31.6772 50.256C32.1999 50.5867 32.5945 51.0507 32.8612 51.648C33.1385 52.2453 33.2772 52.944 33.2772 53.744V54.272H27.3892V53.216H31.8532L31.5812 53.44C31.5812 52.6933 31.4212 52.1227 31.1012 51.728C30.7919 51.3333 30.3385 51.136 29.7412 51.136C29.0799 51.136 28.5679 51.3707 28.2052 51.84C27.8532 52.3093 27.6772 52.9653 27.6772 53.808V54.016C27.6772 54.8907 27.8905 55.5467 28.3172 55.984C28.7545 56.4107 29.3679 56.624 30.1572 56.624C30.6159 56.624 31.0425 56.5653 31.4372 56.448C31.8425 56.32 32.2265 56.1173 32.5892 55.84L33.1812 57.184C32.7972 57.4933 32.3385 57.7333 31.8052 57.904C31.2719 58.0747 30.7065 58.16 30.1092 58.16ZM34.9708 58V51.936C34.9708 51.6053 34.9601 51.2693 34.9388 50.928C34.9175 50.5867 34.8855 50.2507 34.8428 49.92H36.7788L36.9388 51.52H36.7468C37.0028 50.9547 37.3815 50.5227 37.8828 50.224C38.3841 49.9147 38.9655 49.76 39.6268 49.76C40.5761 49.76 41.2908 50.0267 41.7708 50.56C42.2508 51.0933 42.4908 51.9253 42.4908 53.056V58H40.4908V53.152C40.4908 52.5013 40.3628 52.0373 40.1068 51.76C39.8615 51.472 39.4881 51.328 38.9868 51.328C38.3681 51.328 37.8775 51.52 37.5148 51.904C37.1521 52.288 36.9708 52.8 36.9708 53.44V58H34.9708ZM47.7474 58.16C47.0434 58.16 46.4194 57.9947 45.8754 57.664C45.3421 57.3227 44.9261 56.8373 44.6274 56.208C44.3288 55.5787 44.1794 54.8267 44.1794 53.952C44.1794 53.0773 44.3288 52.3307 44.6274 51.712C44.9261 51.0827 45.3421 50.6027 45.8754 50.272C46.4194 49.9307 47.0434 49.76 47.7474 49.76C48.4194 49.76 49.0114 49.9253 49.5234 50.256C50.0461 50.576 50.3928 51.0133 50.5634 51.568H50.3554V46.224H52.3554V58H50.3874V56.288H50.5794C50.4088 56.864 50.0621 57.3227 49.5394 57.664C49.0274 57.9947 48.4301 58.16 47.7474 58.16ZM48.3074 56.624C48.9368 56.624 49.4434 56.4053 49.8274 55.968C50.2114 55.52 50.4034 54.848 50.4034 53.952C50.4034 53.056 50.2114 52.3893 49.8274 51.952C49.4434 51.5147 48.9368 51.296 48.3074 51.296C47.6781 51.296 47.1661 51.5147 46.7714 51.952C46.3874 52.3893 46.1954 53.056 46.1954 53.952C46.1954 54.848 46.3874 55.52 46.7714 55.968C47.1661 56.4053 47.6781 56.624 48.3074 56.624ZM57.6533 58.16C56.9493 58.16 56.3306 57.9947 55.7973 57.664C55.264 57.3227 54.848 56.8373 54.5493 56.208C54.2506 55.5787 54.1013 54.8267 54.1013 53.952C54.1013 53.0773 54.2506 52.3307 54.5493 51.712C54.848 51.0827 55.264 50.6027 55.7973 50.272C56.3306 49.9307 56.9493 49.76 57.6533 49.76C58.336 49.76 58.9333 49.9307 59.4453 50.272C59.968 50.6027 60.3146 51.0507 60.4853 51.616H60.3093L60.4853 49.92H62.4053C62.3733 50.2507 62.3413 50.5867 62.3093 50.928C62.288 51.2693 62.2773 51.6053 62.2773 51.936V58H60.2933L60.2773 56.336H60.4693C60.2986 56.8907 59.952 57.3333 59.4293 57.664C58.9066 57.9947 58.3146 58.16 57.6533 58.16ZM58.2133 56.624C58.8426 56.624 59.3493 56.4053 59.7333 55.968C60.1173 55.52 60.3093 54.848 60.3093 53.952C60.3093 53.056 60.1173 52.3893 59.7333 51.952C59.3493 51.5147 58.8426 51.296 58.2133 51.296C57.584 51.296 57.0773 51.5147 56.6933 51.952C56.3093 52.3893 56.1173 53.056 56.1173 53.952C56.1173 54.848 56.304 55.52 56.6773 55.968C57.0613 56.4053 57.5733 56.624 58.2133 56.624ZM64.4392 58V51.984C64.4392 51.6427 64.4285 51.296 64.4072 50.944C64.3965 50.592 64.3699 50.2507 64.3272 49.92H66.2632L66.4872 52.128H66.1672C66.2739 51.5947 66.4499 51.152 66.6952 50.8C66.9512 50.448 67.2605 50.1867 67.6232 50.016C67.9859 49.8453 68.3805 49.76 68.8072 49.76C68.9992 49.76 69.1539 49.7707 69.2712 49.792C69.3885 49.8027 69.5059 49.8293 69.6232 49.872L69.6072 51.632C69.4045 51.5467 69.2285 51.4933 69.0792 51.472C68.9405 51.4507 68.7645 51.44 68.5512 51.44C68.0925 51.44 67.7032 51.536 67.3832 51.728C67.0739 51.92 66.8392 52.1867 66.6792 52.528C66.5299 52.8693 66.4552 53.2587 66.4552 53.696V58H64.4392Z" fill="#B3B3B3"/>
<path d="M43.625 4.5C46.3174 4.5 48.5 6.68261 48.5 9.375V26.625C48.5 29.3174 46.3174 31.5 43.625 31.5H26.375C23.6826 31.5 21.5 29.3174 21.5 26.625V9.375C21.5 6.68261 23.6826 4.5 26.375 4.5H43.625ZM46.25 12.75H23.75V26.625C23.75 28.0748 24.9253 29.25 26.375 29.25H43.625C45.0748 29.25 46.25 28.0748 46.25 26.625V12.75ZM28.625 21.75C29.6605 21.75 30.5 22.5894 30.5 23.625C30.5 24.6606 29.6605 25.5 28.625 25.5C27.5895 25.5 26.75 24.6606 26.75 23.625C26.75 22.5894 27.5895 21.75 28.625 21.75ZM35 21.75C36.0356 21.75 36.875 22.5894 36.875 23.625C36.875 24.6606 36.0356 25.5 35 25.5C33.9644 25.5 33.125 24.6606 33.125 23.625C33.125 22.5894 33.9644 21.75 35 21.75ZM28.625 15.75C29.6605 15.75 30.5 16.5894 30.5 17.625C30.5 18.6606 29.6605 19.5 28.625 19.5C27.5895 19.5 26.75 18.6606 26.75 17.625C26.75 16.5894 27.5895 15.75 28.625 15.75ZM35 15.75C36.0356 15.75 36.875 16.5894 36.875 17.625C36.875 18.6606 36.0356 19.5 35 19.5C33.9644 19.5 33.125 18.6606 33.125 17.625C33.125 16.5894 33.9644 15.75 35 15.75ZM41.375 15.75C42.4106 15.75 43.25 16.5894 43.25 17.625C43.25 18.6606 42.4106 19.5 41.375 19.5C40.3394 19.5 39.5 18.6606 39.5 17.625C39.5 16.5894 40.3394 15.75 41.375 15.75ZM43.625 6.75H26.375C24.9253 6.75 23.75 7.92525 23.75 9.375V10.5H46.25V9.375C46.25 7.92525 45.0748 6.75 43.625 6.75Z" fill="#B3B3B3"/>
</svg>
